<?xml version="1.0" encoding="UTF-8"?>
<svg id="Layer_1" data-name="Layer 1" xmlns="http://www.w3.org/2000/svg" viewBox="0 0 659.96 659.96">
  <defs>
    <style>
      .cls-1 {
        fill: #004ddc;
      }

      .cls-1, .cls-2 {
        stroke-width: 0px;
      }

      .cls-2 {
        fill: #fff;
      }
    </style>
  </defs>
  <path class="cls-1" d="m330.11,659.96C147.87,660.02.01,512.4,0,330.39-.01,147.48,147.46-.04,330.29,0c182.13.04,329.7,147.79,329.67,330.07-.03,182.2-147.64,329.83-329.85,329.89Zm-133.16-216.37c0,20.83-.01,41.66,0,62.49.01,12.85,9,21.92,21.98,22.01,14.33.1,28.67-.22,42.99.1,11.19.25,22.54-9.24,22.36-22.31-.5-34.99-.18-69.99-.16-104.99,0-12.21,6.58-18.84,18.78-18.86,20.16-.04,40.33-.04,60.49,0,12.07.02,18.56,6.51,18.56,18.46,0,35,0,69.99,0,104.99,0,13.58,8.8,22.53,22.4,22.63,12.16.09,24.33.09,36.5,0,13.22-.1,22.14-9.17,22.14-22.39,0-41,.31-82-.18-122.99-.15-12.78,8.68-19.71,19.49-19.3,6.82.26,13.67.21,20.49-.12,8.9-.44,15.66-4.76,19.05-13.05,3.33-8.14,1.35-15.48-4.63-22.04-15.59-17.11-30.99-34.39-46.47-51.6-40.87-45.43-81.7-90.9-122.63-136.28-10.59-11.74-25.4-11.78-36.1-.02-21.18,23.28-42.16,46.73-63.23,70.12-35.22,39.1-70.39,78.23-105.7,117.25-6.06,6.69-8.49,14.08-4.99,22.42,3.7,8.82,10.95,13.07,20.51,13.18,6.83.08,13.67-.08,20.5.07,11.33.25,17.83,6.97,17.84,18.26.01,20.66,0,41.33,0,61.99Z"/>
  <path class="cls-2" d="m196.94,443.59c0-20.66,0-41.33,0-61.99,0-11.29-6.51-18.01-17.84-18.26-6.83-.15-13.67.02-20.5-.07-9.56-.11-16.81-4.37-20.51-13.18-3.5-8.35-1.07-15.73,4.99-22.42,35.31-39.01,70.48-78.15,105.7-117.25,21.06-23.38,42.05-46.84,63.23-70.12,10.7-11.76,25.51-11.72,36.1.02,40.93,45.38,81.76,90.85,122.63,136.28,15.48,17.21,30.88,34.49,46.47,51.6,5.98,6.56,7.96,13.9,4.63,22.04-3.39,8.29-10.14,12.61-19.05,13.05-6.82.34-13.67.38-20.49.12-10.8-.41-19.64,6.52-19.49,19.3.49,40.99.19,81.99.18,122.99,0,13.22-8.92,22.29-22.14,22.39-12.16.09-24.33.09-36.5,0-13.6-.1-22.4-9.05-22.4-22.63,0-35,0-69.99,0-104.99,0-11.95-6.49-18.44-18.56-18.46-20.16-.04-40.33-.04-60.49,0-12.2.02-18.77,6.65-18.78,18.86-.02,35-.33,70,.16,104.99.19,13.07-11.17,22.57-22.36,22.31-14.32-.32-28.66,0-42.99-.1-12.98-.09-21.97-9.15-21.98-22.01-.02-20.83,0-41.66,0-62.49Z"/>
</svg>